<svg id="Layer_1" data-name="Layer 1" xmlns="http://www.w3.org/2000/svg" viewBox="0 0 32 32"><title>accessrightstype_32</title><path d="M16,31C3,31,3,4,3,4L16,1,29,4S29,31,16,31Z" fill="#fff"/><path d="M16,2.05L28,4.79C27.68,13.08,25.19,30,16,30S4.32,13.08,4,4.79L16,2.05M16,0L2,3.2S2,32,16,32,30,3.2,30,3.2L16,0h0Z" fill="#9da2a5"/><path d="M21.37,17.05L18,15.71a6.38,6.38,0,0,1-.2-1.47A11.71,11.71,0,0,0,18.84,9.9,2.79,2.79,0,0,0,16,7a2.66,2.66,0,0,0-2.8,2.89,8.72,8.72,0,0,0,.07,1.95v0a9.47,9.47,0,0,0,.91,2.4,3.82,3.82,0,0,1-.2,1.53l-3.37,1.31A1.12,1.12,0,0,0,10,18v2H22V18A1.36,1.36,0,0,0,21.37,17.05Z" fill="#8d9599"/></svg>