<svg id="Layer_1" data-name="Layer 1" xmlns="http://www.w3.org/2000/svg" viewBox="0 0 32 32"><title>refresh_32</title><path d="M31,14H24a1,1,0,0,1,0-2h6V6a1,1,0,0,1,2,0v7A1,1,0,0,1,31,14Z" fill="#407fb9"/><path d="M1,18H8a1,1,0,0,1,0,2H2v6a1,1,0,0,1-2,0V19A1,1,0,0,1,1,18Z" fill="#407fb9"/><path d="M16,1A15,15,0,0,0,1,16H3a12.9968,12.9968,0,0,1,25.3638-4h2.08A14.9942,14.9942,0,0,0,16,1Z" fill="#407fb9"/><path d="M16,29A13.0184,13.0184,0,0,1,3.6362,20H1.556A14.9927,14.9927,0,0,0,31,16H29A13.0148,13.0148,0,0,1,16,29Z" fill="#407fb9"/></svg>