<svg id="Layer_1" data-name="Layer 1" xmlns="http://www.w3.org/2000/svg" viewBox="0 0 16 16"><title>refresh</title><path d="M15,1a1,1,0,0,0-1,1V4H12a1,1,0,0,0,0,2h4V2A1,1,0,0,0,15,1Z" fill="#407fb9"/><path d="M1,13a1,1,0,0,0,1-1V10H4A1,1,0,0,0,4,8H0v4A1,1,0,0,0,1,13Z" fill="#407fb9"/><path d="M8.5,1.4A6.1044,6.1044,0,0,1,14.0582,5h1.5059A7.496,7.496,0,0,0,1.1506,6H2.5944A6.1052,6.1052,0,0,1,8.5,1.4Z" fill="#407fb9"/><path d="M14.5746,8a6.093,6.093,0,0,1-11.98,1H1.1506A7.4957,7.4957,0,0,0,15.9748,8Z" fill="#407fb9"/></svg>