<svg id="Layer_1" data-name="Layer 1" xmlns="http://www.w3.org/2000/svg" viewBox="0 0 32 32"><title>DeleteLink_32</title><rect x="4" y="5" width="22" height="22" fill="#fff"/><path d="M10.39,17.24c-0.69.91-1.24,5.6,5.45,5.76-4.15-2.31-2.57-4.28-2.57-4.28l4-3.61L20,17.89V10H12.15l2.77,2.79A61.19,61.19,0,0,0,10.39,17.24Z" fill="#80abce"/><path d="M30,32a1,1,0,0,1-.71-0.29l-8-8a1,1,0,0,1,1.41-1.41l8,8A1,1,0,0,1,30,32Z" fill="#576672"/><path d="M22,32a1,1,0,0,1-.71-1.71l8-8a1,1,0,0,1,1.41,1.41l-8,8A1,1,0,0,1,22,32Z" fill="#576672"/><path d="M22,27H4V5H26V23l2-2V4a1,1,0,0,0-1-1H3A1,1,0,0,0,2,4V28a1,1,0,0,0,1,1H20Z" fill="#9da2a5"/></svg>