<svg id="Layer_1" data-name="Layer 1" xmlns="http://www.w3.org/2000/svg" viewBox="0 0 16 16"><title>DeleteLink_16</title><rect x="1" y="1" width="12" height="12" fill="#fff"/><polygon points="13 9 9 13 1 13 1 1 13 1 13 9" fill="#fff"/><path d="M4.8,7.9c-0.37.49-.67,3,3,3.1C5.5,9.76,6.36,8.69,6.36,8.69L8.5,6.75,10,8.25V4H5.75l1.5,1.5A33.05,33.05,0,0,0,4.8,7.9Z" fill="#80abce"/><path d="M15.86,15.15l-2.65-2.71,2.64-2.58a0.5,0.5,0,1,0-.7-0.71L12.5,11.73,9.85,9.14a0.5,0.5,0,1,0-.7.71l2.64,2.58L9.14,15.15a0.5,0.5,0,0,0,.72.7l2.64-2.7,2.64,2.7A0.5,0.5,0,0,0,15.86,15.15Z" fill="#576672"/><path d="M9,13H1V1H13V9l1-1V1a1,1,0,0,0-1-1H1A1,1,0,0,0,0,1V13a1,1,0,0,0,1,1H8Z" fill="#798288"/></svg>