<?xml version="1.0" encoding="UTF-8" standalone="no"?>
<svg
   xmlns:dc="http://purl.org/dc/elements/1.1/"
   xmlns:cc="http://creativecommons.org/ns#"
   xmlns:rdf="http://www.w3.org/1999/02/22-rdf-syntax-ns#"
   xmlns:svg="http://www.w3.org/2000/svg"
   xmlns="http://www.w3.org/2000/svg"
   xmlns:sodipodi="http://sodipodi.sourceforge.net/DTD/sodipodi-0.dtd"
   xmlns:inkscape="http://www.inkscape.org/namespaces/inkscape"
   id="Layer_1"
   data-name="Layer 1"
   viewBox="0 0 16 16"
   version="1.1"
   sodipodi:docname="Action_Delete_small.svg"
   inkscape:version="0.92.4 (5da689c313, 2019-01-14)">
  <metadata
     id="metadata3757">
    <rdf:RDF>
      <cc:Work
         rdf:about="">
        <dc:format>image/svg+xml</dc:format>
        <dc:type
           rdf:resource="http://purl.org/dc/dcmitype/StillImage" />
        <dc:title>Action_AddChangeset_small_17b1e5838e3e4a45a214793477538e80-7</dc:title>
      </cc:Work>
    </rdf:RDF>
  </metadata>
  <defs
     id="defs3755" />
  <sodipodi:namedview
     pagecolor="#ffffff"
     bordercolor="#666666"
     borderopacity="1"
     objecttolerance="10"
     gridtolerance="10"
     guidetolerance="10"
     inkscape:pageopacity="0"
     inkscape:pageshadow="2"
     inkscape:window-width="1920"
     inkscape:window-height="1017"
     id="namedview3753"
     showgrid="false"
     inkscape:zoom="30"
     inkscape:cx="-3.0169492"
     inkscape:cy="8"
     inkscape:window-x="-8"
     inkscape:window-y="-8"
     inkscape:window-maximized="1"
     inkscape:current-layer="Layer_1"
     inkscape:snap-bbox="true"
     inkscape:object-paths="false"
     inkscape:bbox-paths="true" />
  <title
     id="title3748">Action_AddChangeset_small_17b1e5838e3e4a45a214793477538e80-7</title>
  <path
     style="fill:#ff0000"
     d="M 1.5 6 A 0.5 0.5 0 0 0 1 6.5 L 1 9.5 A 0.5 0.5 0 0 0 1.5 10 L 3.5 10 L 6 10 L 10 10 L 12.333984 10 L 14.5 10 A 0.5 0.5 0 0 0 15 9.5 L 15 6.5 A 0.5 0.5 0 0 0 14.5 6 L 12.367188 6 L 10 6 L 6 6 L 3.6660156 6 L 1.5 6 z "
     id="path3750" />
  <rect
     style="fill:none"
     id="rect843"
     width="12.533334"
     height="5.8333335"
     x="2.3333333"
     y="9.5666666" />
  <rect
     style="fill:none"
     id="rect845"
     width="0.69999999"
     height="0.26666668"
     x="4.1666665"
     y="11.933333" />
  <rect
     style="fill:none"
     id="rect847"
     width="2.7"
     height="1.8"
     x="4.0666666"
     y="10.066667" />
</svg>
