<svg id="Layer_1" data-name="Layer 1" xmlns="http://www.w3.org/2000/svg" viewBox="0 0 32 32"><title>Openplanfordirector_32</title><rect x="2" y="5" width="28" height="21" fill="#fff"/><path d="M31,3H1A1,1,0,0,0,0,4V27a1,1,0,0,0,1,1H9l2-2H2V5H30V26H23l-2,2H31a1,1,0,0,0,1-1V4A1,1,0,0,0,31,3Z" fill="#9da2a5"/><rect x="4" y="8" width="12" height="3" fill="#adb1b2"/><polygon points="23 15 9 15 9 12 24 12 24 14 23 15" fill="#adb1b2"/><polygon points="20 18 19 19 4 19 4 16 20 16 20 18" fill="#adb1b2"/><path d="M27.67,17l0,0L26,15.36l-0.06,0h0a1.18,1.18,0,0,0-.76-0.3,1.24,1.24,0,0,0-.82.36L12.82,26.88,12,31l4.12-.82L27.65,18.65A1.15,1.15,0,0,0,27.67,17Z" fill="#d7853c"/><line x1="26.49" y1="19.94" x2="23.53" y2="17" fill="none"/><path d="M26.54,20.36a0.43,0.43,0,0,1-.3-0.13l-3.45-3.42a0.43,0.43,0,1,1,.61-0.61l3.45,3.41A0.43,0.43,0,0,1,26.54,20.36Z" fill="#fff"/></svg>