<svg id="Layer_1" data-name="Layer 1" xmlns="http://www.w3.org/2000/svg" viewBox="0 0 16 16"><title>Openplanfordirector</title><rect x="1" y="2" width="14" height="11" fill="#fff"/><rect x="2" y="4" width="7" height="1" fill="#adb1b2"/><rect x="7" y="6" width="7" height="1" fill="#adb1b2"/><rect x="2" y="8" width="7" height="1" fill="#adb1b2"/><path d="M12.09,8.5l0.35-.35a0.5,0.5,0,0,1,.71,0l0.71,0.71a0.5,0.5,0,0,1,0,.71l-0.35.35Z" fill="#d7853c"/><polygon points="13.15 10.27 8.12 15.29 6 16 6.71 13.87 11.73 8.85 13.15 10.27" fill="#d7853c"/><path d="M15,1H1A1,1,0,0,0,0,2V13a1,1,0,0,0,1,1H5l1-1H1V2H15V13H13l-1,1h3a1,1,0,0,0,1-1V2A1,1,0,0,0,15,1Z" fill="#798288"/></svg>