<svg id="Layer_1" data-name="Layer 1" xmlns="http://www.w3.org/2000/svg" viewBox="0 0 16 16"><title>recipient_16</title><path d="M4.12,8.8a22,22,0,0,1-.72,5.59,19.61,19.61,0,0,0,6.23.08,27.41,27.41,0,0,1-.79-5.64c0.07-1.11,0-2.53-2.54-2.6C4,6.16,4.12,8.8,4.12,8.8Z" fill="#fff"/><path d="M6.47,7a2.16,2.16,0,0,1,1.63.51,1.66,1.66,0,0,1,.34,1.23,21.73,21.73,0,0,0,.64,5,27.36,27.36,0,0,1-2.81.15,19.85,19.85,0,0,1-2.33-.13,21.31,21.31,0,0,0,.59-5,0.81,0.81,0,0,0,0-.09,1.58,1.58,0,0,1,.28-1.09A2,2,0,0,1,6.33,7H6.47m0-.8H6.3C3.32,6.31,3.77,8,3.77,8a25.06,25.06,0,0,1-.82,6.4,19,19,0,0,0,3.32.27,26.92,26.92,0,0,0,3.79-.27A21.89,21.89,0,0,1,9.23,8C9.3,6.91,8.9,6.22,6.47,6.22h0Z" fill="#8d9599"/><path d="M3.29,3.25c0.07,2.17.05,4.17,1.24,5.88a2.67,2.67,0,0,0,3.61.17s1.48-.67,1.55-6.07A3,3,0,0,0,6.34.3,3,3,0,0,0,3.29,3.25Z" fill="#fff"/><path d="M14,16H0V12.84a1.42,1.42,0,0,1,.79-1.2l2.89-1.3S4.53,12.8,6.5,12.8s2.76-2.4,2.76-2.4L13.21,12A1.72,1.72,0,0,1,14,13.2V16Z" fill="#407fb9"/><path d="M5,8.49C3.78,7.4,4,4.85,4,3.43A2.39,2.39,0,0,1,5.4,3c0.77,0,2.39.3,3.6-.1C9,3,9,3.11,9,3.19A13.22,13.22,0,0,1,8.81,7h0.9A23.35,23.35,0,0,0,10,3.2C10,2.36,9.9,0,6.5,0A3.58,3.58,0,0,0,4.23.69,3.15,3.15,0,0,0,3,3.19C3,5.54,2.9,8.72,5,9.7V8.49Z" fill="#8d9599"/><rect x="5" y="8" width="3" height="8" fill="#fff"/><path d="M15,9v6H7V9h8m0-1H7A1,1,0,0,0,6,9v6a1,1,0,0,0,1,1h8a1,1,0,0,0,1-1V9a1,1,0,0,0-1-1h0Z" fill="#cc9823"/><rect x="7" y="9" width="8" height="6" fill="#fff"/><path d="M11,13C8.21,13,6.17,9.9,6.08,9.77a0.5,0.5,0,0,1,.84-0.55S8.76,12,11,12s4.06-2.74,4.08-2.77a0.5,0.5,0,1,1,.84.54C15.84,9.9,13.84,13,11,13Z" fill="#cc9823"/><path d="M14.5,15a0.5,0.5,0,0,1-.35-0.15l-2-2a0.5,0.5,0,0,1,.71-0.71l2,2A0.5,0.5,0,0,1,14.5,15Z" fill="#cc9823"/><path d="M7.5,15a0.5,0.5,0,0,0,.35-0.15l2-2a0.5,0.5,0,0,0-.71-0.71l-2,2A0.5,0.5,0,0,0,7.5,15Z" fill="#cc9823"/></svg>