<svg id="Layer_1" data-name="Layer 1" xmlns="http://www.w3.org/2000/svg" viewBox="0 0 32 32"><title>delete_32</title><rect x="6" y="2" width="18" height="24" fill="#fff"/><path d="M19,26H6V2H24V21l2-2V1a1,1,0,0,0-1-1H5A1,1,0,0,0,4,1V27a1,1,0,0,0,1,1H17Z" fill="#9da2a5"/><path d="M30,31a.9967.9967,0,0,1-.707-.293l-11-11a1,1,0,0,1,1.414-1.414l11,11A1,1,0,0,1,30,31Z" fill="#576672"/><path d="M19,31a1,1,0,0,1-.707-1.707l11-11a1,1,0,0,1,1.414,1.414l-11,11A.9967.9967,0,0,1,19,31Z" fill="#576672"/></svg>