<svg id="Layer_1" data-name="Layer 1" xmlns="http://www.w3.org/2000/svg" viewBox="0 0 32 32"><title>recipient_32</title><path d="M10.24,17.6A44.06,44.06,0,0,1,8.81,28.78a39.23,39.23,0,0,0,12.46.16s-1.83-7.64-1.58-11.28c0.15-2.23.07-5.07-5.08-5.2C9.92,12.32,10.24,17.6,10.24,17.6Z" fill="#fff"/><path d="M15,27.74H14.53a39.7,39.7,0,0,1-4.67-.26,42.61,42.61,0,0,0,1.18-10,1.64,1.64,0,0,0,0-.17,3.15,3.15,0,0,1,.56-2.18A3.93,3.93,0,0,1,14.65,14h0.3a4.32,4.32,0,0,1,3.25,1,3.32,3.32,0,0,1,.68,2.47,14.23,14.23,0,0,0,0,1.48H20.4a18.26,18.26,0,0,1,.05-3c0.15-2.18-.65-3.56-5.5-3.56H14.61C8.65,12.61,9.53,16,9.53,16c0.34,3.31-1,10.77-1.64,12.81a38,38,0,0,0,6.64.53H15v-1.6Z" fill="#8d9599"/><path d="M8.59,6.5c0.13,4.33.11,8.35,2.49,11.75,4,3.33,7.22.35,7.22,0.35s3-1.33,3.09-12.13c0-2.23-1.56-6-6.71-5.87C8.71,0.77,8.59,6.5,8.59,6.5Z" fill="#fff"/><path d="M15,0a7.16,7.16,0,0,0-4.53,1.38A6.31,6.31,0,0,0,8,6.38C8,12,7.67,20,15,20c5.44-.33,6.89-2.79,7-13.59C21.91,4.73,21.79,0,15,0Zm0,18c-5.78,0-4.92-7.46-5-11.14A4.77,4.77,0,0,1,12.8,6c1.54-.08,4.78.6,7.2-0.19,0,0.21,0,.41,0,0.58C20.42,13.83,19.63,17.77,15,18Z" fill="#8d9599"/><path d="M16,19h4a0,0,0,0,1,0,0V32a0,0,0,0,1,0,0H15a0,0,0,0,1,0,0V20A1,1,0,0,1,16,19Z" fill="#fff"/><rect x="17" y="21" width="14" height="10" fill="#fff"/><path d="M31,20H17a1,1,0,0,0-1,1V31a1,1,0,0,0,1,1H31a1,1,0,0,0,1-1V21A1,1,0,0,0,31,20Zm0,1v0.36C29.57,22.7,27,26,24,26h0c-3,0-5.58-3.38-7-4.72V21H31ZM17,31V22.82a14.67,14.67,0,0,0,4.06,3.4L17.18,30.1a0.5,0.5,0,1,0,.71.71l4.17-4.15A5.88,5.88,0,0,0,24,27h0a5.81,5.81,0,0,0,1.91-.35l4.17,4.15a0.5,0.5,0,0,0,.71-0.71l-3.87-3.87A15.2,15.2,0,0,0,31,22.87V31H17Z" fill="#cc9823"/><path d="M15,26c-3.95,0-5.64-5.31-5.64-5.31L1.58,24A2.83,2.83,0,0,0,0,26.4V32H15V26Z" fill="#407fb9"/></svg>